<?xml version="1.0" encoding="utf-8"?>
<!-- Generator: Adobe Illustrator 25.2.1, SVG Export Plug-In . SVG Version: 6.00 Build 0)  -->
<svg version="1.1" xmlns="http://www.w3.org/2000/svg" xmlns:xlink="http://www.w3.org/1999/xlink" x="0px" y="0px"
	 viewBox="0 0 1726.3 1295.43" enable-background="new 0 0 1726.3 1295.43" xml:space="preserve">
<g id="bottom_and_top">
	<path fill="none" stroke="#FF0000" stroke-miterlimit="10" d="M703.064,464.882H53.459c-16.24,0-29.527-14.431-29.527-32.069
		V57.581c0-17.638,13.287-32.069,29.527-32.069h649.605c16.241,0,29.529,14.431,29.529,32.069v375.232
		C732.593,450.451,719.305,464.882,703.064,464.882z"/>
	<path fill="none" stroke="#FF0000" stroke-miterlimit="10" d="M397.565,385.873c0,7.828-6.344,14.172-14.172,14.172
		c-7.829,0-14.175-6.344-14.175-14.172c0-7.829,6.346-14.175,14.175-14.175C391.221,371.698,397.565,378.044,397.565,385.873z"/>
</g>
<g id="button_holes__x28_small_x29_">
	<path fill="none" stroke="#FF0000" stroke-miterlimit="10" d="M216.321,244.7c0,11.741-9.519,21.26-21.26,21.26
		c-11.742,0-21.26-9.519-21.26-21.26c0-11.742,9.518-21.259,21.26-21.259C206.802,223.441,216.321,232.958,216.321,244.7z"/>
	
		<ellipse transform="matrix(0.7071 -0.7071 0.7071 0.7071 -62.2828 339.0247)" fill="none" stroke="#FF0000" stroke-miterlimit="10" cx="378.098" cy="244.694" rx="21.26" ry="21.26"/>
	<path fill="none" stroke="#FF0000" stroke-miterlimit="10" d="M582.353,244.825c0,11.741-9.518,21.26-21.259,21.26
		c-11.741,0-21.26-9.519-21.26-21.26c0-11.742,9.519-21.26,21.26-21.26C572.835,223.565,582.353,233.083,582.353,244.825z"/>
</g>
<g id="bottom_positioning_holes">
	<path fill="none" stroke="#FF0000" stroke-miterlimit="10" d="M143.604,142.866c0,5.088-4.124,9.213-9.212,9.213
		c-5.087,0-9.213-4.124-9.213-9.213c0-5.088,4.126-9.212,9.213-9.212C139.48,133.654,143.604,137.778,143.604,142.866z"/>
	<path fill="none" stroke="#FF0000" stroke-miterlimit="10" d="M143.432,400.298c0,5.086-4.125,9.212-9.212,9.212
		c-5.089,0-9.213-4.126-9.213-9.212c0-5.089,4.124-9.213,9.213-9.213C139.306,391.085,143.432,395.209,143.432,400.298z"/>
	<path fill="none" stroke="#FF0000" stroke-miterlimit="10" d="M632.719,142.728c0,5.088-4.125,9.213-9.212,9.213
		c-5.088,0-9.213-4.125-9.213-9.213c0-5.088,4.125-9.212,9.213-9.212C628.594,133.516,632.719,137.64,632.719,142.728z"/>
	<path fill="none" stroke="#FF0000" stroke-miterlimit="10" d="M632.565,400.073c0,5.086-4.125,9.212-9.213,9.212
		c-5.087,0-9.212-4.126-9.212-9.212c0-5.089,4.125-9.213,9.212-9.213C628.44,390.86,632.565,394.984,632.565,400.073z"/>
</g>
</svg>
